# xmcd
#
# Track frame offsets:
#	150
#	19470
#	36412
#	49666
#	65228
#	81359
#	99914
#	113994
#	127353
#	141601
#	153742
#	169192
#
# Disc length: 2489 seconds
#
# Revision: 0
# Processed by: cddbd v1.5.2PL0 Copyright (c) Steve Scherf et al.
# Submitted via: audiograbber 1.83.01
#
DISCID=bc09b70c
DTITLE=Garth Brooks - The Ultimate Collection - Midnight Fire
DYEAR=2016
DGENRE=Country
TTITLE0=Shameless
TTITLE1=The Red Strokes
TTITLE2=She's Every Woman
TTITLE3=What She's Doing Now
TTITLE4=In Another's Eyes (The Duet with Trisha Yearwood)
TTITLE5=One Night a Day
TTITLE6=A Friend To Me
TTITLE7=Anonymous
TTITLE8=Victim of the Game
TTITLE9=Which One of Them
TTITLE10=More Than a Memory
TTITLE11=To Make You Feel My Love
EXTD=
EXTT0=
EXTT1=
EXTT2=
EXTT3=
EXTT4=
EXTT5=
EXTT6=
EXTT7=
EXTT8=
EXTT9=
EXTT10=
EXTT11=
PLAYORDER=
